<svg width="22" height="22" viewBox="0 0 22 22" fill="none" xmlns="http://www.w3.org/2000/svg">
<path d="M3 4H4L3.56078 1.80388C3.46729 1.33646 3.05688 1 2.5802 1H1.5C1.22386 1 1 1.22386 1 1.5C1 1.77614 1.22386 2 1.5 2H2.6L3 4Z" fill="black"/>
<path d="M19.2705 5.09806L17.6704 13.0981C17.6236 13.3318 17.4184 13.5 17.1801 13.5H5.81971C5.58136 13.5 5.37616 13.3318 5.32942 13.0981L3.6099 4.5H18.7802C19.0957 4.5 19.3324 4.78867 19.2705 5.09806Z" stroke="black"/>
<circle cx="7" cy="18" r="2" stroke="black"/>
<circle cx="16" cy="18" r="2" stroke="black"/>
</svg>
