<svg width="70" height="70" viewBox="0 0 70 70" fill="none" xmlns="http://www.w3.org/2000/svg">
<path d="M30.7383 23.3096L31.415 23.4531L29.0361 31H7.50293V30.2412H8.54883C9.72461 30.2412 10.5654 29.8584 11.0713 29.0928C11.3584 28.6553 11.502 27.6436 11.502 26.0576V8.11328C11.502 6.37695 11.3105 5.29004 10.9277 4.85254C10.3945 4.25098 9.60156 3.9502 8.54883 3.9502H7.50293V3.19141H20.0947V3.9502C18.6182 3.93652 17.5791 4.07324 16.9775 4.36035C16.3896 4.64746 15.9863 5.00977 15.7676 5.44727C15.5488 5.88477 15.4395 6.93066 15.4395 8.58496V26.0576C15.4395 27.1924 15.5488 27.9717 15.7676 28.3955C15.9316 28.6826 16.1846 28.8945 16.5264 29.0312C16.8682 29.168 17.9346 29.2363 19.7256 29.2363H21.7559C23.8887 29.2363 25.3857 29.0791 26.2471 28.7646C27.1084 28.4502 27.8945 27.8965 28.6055 27.1035C29.3164 26.2969 30.0273 25.0322 30.7383 23.3096Z" fill="black"/>
<path d="M52.1846 2.55566C55.7939 2.55566 58.918 3.92969 61.5566 6.67773C64.209 9.41211 65.5352 12.8301 65.5352 16.9316C65.5352 21.1562 64.2021 24.6631 61.5361 27.4521C58.8701 30.2412 55.6436 31.6357 51.8564 31.6357C48.0283 31.6357 44.8086 30.2754 42.1973 27.5547C39.5996 24.834 38.3008 21.3135 38.3008 16.9932C38.3008 12.5771 39.8047 8.97461 42.8125 6.18555C45.4238 3.76562 48.5479 2.55566 52.1846 2.55566ZM51.7949 4.05273C49.3066 4.05273 47.3105 4.97559 45.8066 6.82129C43.9336 9.11816 42.9971 12.4814 42.9971 16.9111C42.9971 21.4502 43.9678 24.9434 45.9092 27.3906C47.3994 29.25 49.3682 30.1797 51.8154 30.1797C54.4268 30.1797 56.5801 29.1611 58.2754 27.124C59.9844 25.0869 60.8389 21.874 60.8389 17.4854C60.8389 12.7275 59.9023 9.17969 58.0293 6.8418C56.5254 4.98242 54.4473 4.05273 51.7949 4.05273Z" fill="black"/>
<path d="M51.6846 38.5557C55.2939 38.5557 58.418 39.9297 61.0566 42.6777C63.709 45.4121 65.0352 48.8301 65.0352 52.9316C65.0352 57.1562 63.7021 60.6631 61.0361 63.4521C58.3701 66.2412 55.1436 67.6357 51.3564 67.6357C47.5283 67.6357 44.3086 66.2754 41.6973 63.5547C39.0996 60.834 37.8008 57.3135 37.8008 52.9932C37.8008 48.5771 39.3047 44.9746 42.3125 42.1855C44.9238 39.7656 48.0479 38.5557 51.6846 38.5557ZM51.2949 40.0527C48.8066 40.0527 46.8105 40.9756 45.3066 42.8213C43.4336 45.1182 42.4971 48.4814 42.4971 52.9111C42.4971 57.4502 43.4678 60.9434 45.4092 63.3906C46.8994 65.25 48.8682 66.1797 51.3154 66.1797C53.9268 66.1797 56.0801 65.1611 57.7754 63.124C59.4844 61.0869 60.3389 57.874 60.3389 53.4854C60.3389 48.7275 59.4023 45.1797 57.5293 42.8418C56.0254 40.9824 53.9473 40.0527 51.2949 40.0527Z" fill="black"/>
<path d="M29.6025 38.5557L30.3203 47.333H29.6025C28.8779 45.1455 27.9414 43.498 26.793 42.3906C25.1387 40.791 23.0127 39.9912 20.415 39.9912C16.874 39.9912 14.1807 41.3926 12.335 44.1953C10.79 46.5605 10.0176 49.377 10.0176 52.6445C10.0176 55.2969 10.5303 57.7168 11.5557 59.9043C12.5811 62.0918 13.9209 63.6982 15.5752 64.7236C17.2432 65.7354 18.9521 66.2412 20.7021 66.2412C21.7275 66.2412 22.7188 66.1113 23.6758 65.8516C24.6328 65.5918 25.5557 65.209 26.4443 64.7031V56.6641C26.4443 55.2695 26.335 54.3604 26.1162 53.9365C25.9111 53.499 25.583 53.1709 25.1318 52.9521C24.6943 52.7197 23.915 52.6035 22.7939 52.6035V51.8242H33.5605V52.6035H33.0479C31.9814 52.6035 31.25 52.959 30.8535 53.6699C30.5801 54.1758 30.4434 55.1738 30.4434 56.6641V65.1748C28.8711 66.0225 27.3193 66.6445 25.7881 67.041C24.2568 67.4375 22.5547 67.6357 20.6816 67.6357C15.3086 67.6357 11.2275 65.9131 8.43848 62.4678C6.34668 59.8838 5.30078 56.9033 5.30078 53.5264C5.30078 51.0791 5.88867 48.7344 7.06445 46.4922C8.45898 43.8262 10.373 41.7754 12.8066 40.3398C14.8438 39.1504 17.25 38.5557 20.0254 38.5557C21.0371 38.5557 21.9531 38.6377 22.7734 38.8018C23.6074 38.9658 24.7832 39.3281 26.3008 39.8887C27.0664 40.1758 27.5791 40.3193 27.8389 40.3193C28.0986 40.3193 28.3174 40.2031 28.4951 39.9707C28.6865 39.7246 28.8027 39.2529 28.8438 38.5557H29.6025Z" fill="black"/>
</svg>
